<svg width="970" height="970" viewBox="0 0 970 970" fill="none" xmlns="http://www.w3.org/2000/svg">
<path d="M911.115 232.362C911.114 250.658 916.729 268.514 927.203 283.515C937.677 298.516 952.504 309.94 969.68 316.243V384.257C952.504 390.559 937.677 401.983 927.203 416.983C916.728 431.984 911.111 449.839 911.111 468.134C911.111 486.43 916.728 504.285 927.203 519.285C937.677 534.286 952.504 545.709 969.68 552.012V631.944C952.505 638.247 937.678 649.672 927.205 664.673C916.731 679.674 911.115 697.528 911.115 715.824C911.115 734.12 916.731 751.974 927.205 766.975C937.678 781.976 952.505 793.401 969.68 799.704V885.806C952.505 892.108 937.678 903.531 927.205 918.531C916.731 933.531 911.115 951.385 911.115 969.68H93.5468C68.7367 969.68 44.9427 959.824 27.3992 942.281C9.8558 924.737 0 900.943 0 876.133V93.5408C-2.54313e-08 81.2563 2.4197 69.0922 7.12095 57.7429C11.8222 46.3936 18.7129 36.0815 27.3996 27.3953C36.0863 18.7092 46.3989 11.8192 57.7485 7.11864C69.098 2.41813 81.2624 -0.000790261 93.5468 1.93666e-07H911.115C911.116 18.2947 916.732 36.1483 927.206 51.1483C937.679 66.1483 952.505 77.5715 969.68 83.8743V148.488C952.505 154.791 937.679 166.214 927.206 181.214C916.732 196.214 911.116 214.068 911.115 232.362Z" fill="#312783"/>
<path d="M822.543 729.936C801.843 746.187 775.908 740.956 760.373 737.82C753.228 736.376 729.206 730.778 708.712 712.426C658.441 667.411 668.764 580.942 689.451 532.05C696.975 514.258 707.616 490.116 731.482 483.013C744.597 479.107 763.641 479.775 776.136 490.892C788.939 502.28 785.55 516.34 791.9 571.45C795.788 605.156 797.732 622.009 803.174 632.717C818.823 663.414 841.779 665.888 843.561 688.784C845.361 711.536 824.156 728.672 822.543 729.936Z" fill="#FFD405"/>
<path d="M166.944 245.932C152.445 249.417 174.847 333.544 158.175 456.15C151.975 501.726 141.574 555.289 141.574 555.289C134.273 579.937 129.608 605.29 127.659 630.923C125.751 656.389 124.529 674.976 131.083 698.293C135.814 715.146 141.918 736.851 162.003 752.741C185.031 770.948 211.918 770.027 226.081 769.54C237.703 769.143 268.647 768.095 292.831 745.271C305.814 733.017 311.418 719.624 315.703 709.362C319.917 699.25 324.07 685.804 326.802 644.49C328.999 611.205 328.554 586.16 328.506 583.885C327.133 516.051 319.08 523.472 321.68 489.989C325.027 446.791 339.544 420.036 322.017 388.762C320.771 386.441 319.363 384.21 317.804 382.087C294.456 350.427 259.943 348.266 234.796 336.114C182.672 310.924 179.211 242.988 166.944 245.932Z" fill="#FFE14D"/>
<path d="M650.117 612.607C683.823 624.891 726.257 601.664 746.131 577.588C756.965 564.443 769.058 541.408 774.366 531.278C779.675 521.149 783.599 512.686 786.236 506.763C787.716 497.265 788.342 486.78 786.145 474.658C784.189 463.896 779.175 436.251 756.652 425.435C747.052 420.836 733.347 418.814 720.617 423.292C716.892 424.627 713.361 426.449 710.114 428.709C693.333 440.145 685.496 459.544 680.747 471.986C660.638 524.64 662.805 528.329 653.529 538.08C650.899 540.849 628.948 563.961 606.088 556.137C591.739 551.255 581.537 535.745 579.496 516.881C585.163 531.35 592.175 545.255 600.442 558.412C618.445 587.092 629.881 605.222 650.117 612.607Z" fill="#FFD405"/>
<path d="M547.494 259.879C551.803 248.906 557.726 232.486 558.472 211.185C546.88 173.326 537.322 161.228 526.096 153.066C521.636 149.822 498.349 133.847 471.324 139.999C444.786 146.018 431.129 169.739 423.593 183.305C397.832 229.651 403.917 281.288 414.119 342.97C418.766 371.079 423.491 396.539 428.204 419.628C447.82 411.003 462.512 397.472 474.809 385.922C511.585 351.349 525.753 315.253 547.494 259.879Z" fill="#FFEA81"/>
<path d="M485.968 695.736C485.949 695.543 485.9 695.354 485.824 695.176C482.676 687.893 481.46 682.777 481.297 682.843C481.026 682.952 485.787 695.802 485.968 695.736Z" fill="#FFEA81"/>
<path d="M646.734 584.366C635.389 577.408 614.298 551.214 611.722 538.056C611.644 537.677 611.301 535.847 610.741 533.054C609.796 528.239 608.225 520.673 606.052 511.434C603.903 502.285 601.977 495.689 601.779 494.31C598.426 471.101 595.025 442.487 591.883 414.438C590.427 417.972 588.874 421.372 587.255 424.671C586.183 426.844 571.479 454.236 551.58 474.833C517.964 509.616 466.635 527.998 460.965 529.973C459.821 532.266 457.889 535.426 455.548 535.39C451.178 535.323 448.8 524.194 447.723 524.447C445.821 524.893 452.641 560.669 458.082 588.916C461.091 604.662 462.722 613.311 464.799 622.821C465.906 627.889 466.857 631.85 467.122 632.969C467.122 632.969 469.53 643.244 472.256 653.157C477.565 672.64 484.692 691.732 485.811 695.205C489.263 703.313 493.847 710.89 499.426 717.71C506.336 725.827 514.638 732.647 523.941 737.85C538.519 746.078 551.49 748.124 558.966 749.232C585.732 753.198 607.021 746.902 619.384 743.104C643.255 735.767 659.23 724.963 671.045 716.831C683.215 708.465 709.566 689.975 730.759 657.123C735.923 649.112 743.862 630.742 759.957 594.093C767.15 577.721 771.291 567.543 775.227 554.464C779.693 539.615 782.378 526.494 784.605 515.611C785.207 512.758 785.748 509.821 786.224 506.787C735.105 574.242 671.719 599.69 646.734 584.366Z" fill="#FFEA81"/>
<path d="M796.925 333.623C793.627 369.604 749.863 396.034 717.577 381.913C694.615 371.862 680.97 342.826 688.048 316.306C695.542 288.234 724.89 268.155 754.359 274.872C782.023 281.21 799.207 308.777 796.925 333.623Z" fill="#FFDD34"/>
<path d="M580.971 315.487C580.369 310.75 575.939 275.491 563.919 230.355C562.047 223.319 560.235 216.975 558.472 211.214C557.72 232.516 551.803 248.941 547.493 259.908C525.753 315.282 511.584 351.396 474.778 385.957C462.499 397.501 447.789 411.032 428.173 419.663C419.669 423.421 410.689 425.991 401.485 427.301C388.593 429.149 372.456 431.454 357.216 423.473C318.634 403.262 317.25 333.532 316.606 301.162C315.811 261.16 323.311 247.792 314.716 212.484C309.798 192.297 304.544 172.007 285.957 158.139C265.908 143.188 237.336 140.931 215.469 150.621C185.747 163.785 176.147 195.571 168.641 220.441C156.838 259.565 160.895 292.452 169.496 356.657C175.756 403.394 178.886 426.766 189.076 448.596C195.516 462.398 218.96 510.833 273.341 538.839C332.026 569.054 389.176 556.155 420.619 549.071C433.212 546.287 445.585 542.591 457.642 538.014C484.643 527.74 520.239 509.057 551.538 474.863C561.59 463.879 579.827 443.661 591.865 414.499C587.411 374.587 583.475 335.885 580.971 315.487Z" fill="#FFD405"/>
</svg>
