<svg width="3431" height="975" viewBox="0 0 3431 975" fill="none" xmlns="http://www.w3.org/2000/svg">
<path d="M3337.47 4.60254H1066.63C1066.63 22.8952 1061.02 40.7474 1050.55 55.7469C1040.08 70.7464 1025.26 82.1703 1008.08 88.4753V153.072C1025.27 159.366 1040.11 170.788 1050.59 185.79C1061.07 200.793 1066.69 218.654 1066.69 236.956C1066.69 255.258 1061.07 273.118 1050.59 288.121C1040.11 303.124 1025.27 314.545 1008.08 320.84V388.848C1025.27 395.142 1040.11 406.563 1050.59 421.566C1061.07 436.569 1066.69 454.43 1066.69 472.732C1066.69 491.034 1061.07 508.894 1050.59 523.897C1040.11 538.9 1025.27 550.321 1008.08 556.616V636.559C1025.27 642.854 1040.11 654.275 1050.59 669.278C1061.07 684.281 1066.69 702.141 1066.69 720.443C1066.69 738.745 1061.07 756.605 1050.59 771.608C1040.11 786.611 1025.27 798.033 1008.08 804.327V890.418C1025.26 896.72 1040.08 908.141 1050.55 923.139C1061.02 938.137 1066.64 955.988 1066.63 974.28H3337.47C3362.28 974.28 3386.07 964.425 3403.61 946.884C3421.15 929.343 3431 905.553 3431 880.746V98.1474C3431 73.3397 3421.15 49.5479 3403.61 32.0052C3386.07 14.4625 3362.28 4.60553 3337.47 4.60254Z" fill="#312783"/>
<path d="M1767.39 502.716C1767.86 520.907 1765.93 539.08 1761.63 556.763C1757.39 574.201 1751.15 591.091 1743.02 607.093C1734.87 623.145 1724.76 638.123 1712.91 651.681C1700.91 665.468 1687.15 677.619 1671.98 687.824C1640.63 708.987 1604.33 721.667 1566.62 724.627C1528.91 727.587 1491.08 720.726 1456.81 704.714C1440.18 696.651 1424.6 686.553 1410.46 674.651C1396.4 662.885 1383.89 649.378 1373.24 634.454C1362.56 619.459 1353.7 603.243 1346.85 586.15C1339.89 568.976 1335.45 550.886 1333.67 532.442C1333.22 528.85 1332.88 525.348 1332.65 521.971C1332.43 518.593 1332.32 515.114 1332.32 511.499V225.73C1332.21 220.2 1333.24 214.708 1335.35 209.594C1337.46 204.48 1340.59 199.855 1344.57 196.005C1352.59 188.206 1363.34 183.844 1374.53 183.844C1385.72 183.844 1396.47 188.206 1404.49 196.005C1408.47 199.852 1411.61 204.476 1413.72 209.59C1415.83 214.705 1416.87 220.198 1416.76 225.73V336.491C1439.59 319.456 1465.35 306.748 1492.76 298.997C1520.3 291.138 1549.14 288.955 1577.55 292.579C1605.83 296.158 1633.14 305.222 1657.94 319.264C1682.93 333.247 1704.77 352.218 1722.12 374.999C1736 393.348 1746.95 413.747 1754.55 435.463C1762.16 457.114 1766.49 479.783 1767.39 502.716ZM1659.29 584.461C1677.31 559.255 1685.19 530.881 1682.94 499.339C1682.06 482.819 1677.94 466.635 1670.8 451.711C1663.71 436.798 1654.13 423.203 1642.47 411.514C1636.75 406.203 1630.54 401.453 1623.92 397.327C1617.39 393.273 1610.54 389.445 1603.36 385.842C1586.61 378.266 1568.44 374.351 1550.06 374.357C1522.5 374.47 1495.64 383.009 1473.07 398.828C1450.5 414.647 1433.31 436.989 1423.8 462.858C1415.73 485.375 1413.97 509.674 1418.73 533.117C1423.27 556.602 1433.87 578.494 1449.47 596.621C1461.14 610.675 1475.95 621.785 1492.71 629.049C1496.76 631.31 1500.93 633.34 1505.21 635.13C1509.48 636.946 1513.88 638.747 1518.38 640.534C1514.78 639.183 1511.16 637.73 1507.55 636.143C1503.93 634.555 1500.34 632.889 1496.73 631.076C1525.07 643.694 1554.31 645.721 1584.44 637.156C1614.91 629.141 1641.49 610.44 1659.33 584.461H1659.29Z" fill="white"/>
<path d="M2279.48 683.095C2279.58 688.435 2278.58 693.738 2276.55 698.676C2274.51 703.615 2271.49 708.083 2267.66 711.807C2260.04 719.581 2249.81 724.271 2238.95 724.98H2232.87C2204.4 724.277 2176.37 717.844 2150.45 706.064C2125.34 694.753 2102.58 678.826 2083.35 659.111C2064.19 639.35 2048.84 616.217 2038.09 590.879C2026.96 564.989 2021.41 537.178 2021.41 507.445V331.795C2021.31 326.264 2022.34 320.77 2024.45 315.656C2026.56 310.542 2029.7 305.917 2033.68 302.07C2037.58 298.113 2042.25 294.995 2047.4 292.904C2052.56 290.813 2058.08 289.794 2063.64 289.909C2069.24 289.815 2074.81 290.842 2080.01 292.93C2085.22 295.018 2089.95 298.126 2093.94 302.07C2098 305.867 2101.22 310.475 2103.39 315.595C2105.56 320.716 2106.63 326.235 2106.54 331.795L2105.86 507.445C2105.74 524.85 2109.19 542.095 2115.99 558.113C2122.5 573.515 2131.78 587.596 2143.36 599.661C2155 611.716 2168.73 621.558 2183.89 628.71C2199.41 636.13 2216.34 640.15 2233.53 640.5H2236.91C2248.19 640.529 2259 645.023 2266.97 652.998C2274.95 660.974 2279.44 671.782 2279.47 683.061L2279.48 683.095Z" fill="white"/>
<path d="M3132.05 302.408C3135.98 306.351 3139.08 311.044 3141.17 316.208C3143.26 321.371 3144.29 326.901 3144.21 332.471C3144.26 337.985 3143.21 343.453 3141.12 348.557C3139.03 353.66 3135.95 358.297 3132.05 362.196C3128.15 366.095 3123.51 369.178 3118.41 371.266C3113.31 373.354 3107.84 374.405 3102.32 374.357H2994.23V683.095C2994.33 688.647 2993.27 694.159 2991.12 699.277C2988.97 704.396 2985.77 709.009 2981.73 712.82C2977.79 716.759 2973.1 719.865 2967.94 721.954C2962.77 724.043 2957.24 725.072 2951.67 724.98C2946.16 725.029 2940.69 723.978 2935.58 721.89C2930.48 719.802 2925.84 716.719 2921.94 712.82C2918.05 708.921 2914.96 704.284 2912.87 699.181C2910.79 694.077 2909.74 688.609 2909.78 683.095V374.357H2801.69C2796.18 374.405 2790.71 373.354 2785.61 371.266C2780.5 369.178 2775.87 366.095 2771.97 362.196C2768.07 358.297 2764.98 353.66 2762.9 348.557C2760.81 343.453 2759.76 337.985 2759.81 332.471C2759.72 326.901 2760.75 321.371 2762.84 316.208C2764.93 311.044 2768.03 306.351 2771.97 302.408C2775.78 298.372 2780.39 295.176 2785.51 293.024C2790.63 290.872 2796.14 289.811 2801.69 289.91H3102.32C3107.87 289.811 3113.38 290.872 3118.5 293.024C3123.62 295.176 3128.23 298.372 3132.05 302.408Z" fill="white"/>
<path d="M2697.2 420.656C2686.18 395.017 2670.49 371.651 2650.93 351.747C2626.88 326.699 2596.9 308.112 2563.78 297.701C2530.67 286.945 2495.48 284.167 2461.09 289.594C2434.13 294.527 2408.28 304.252 2384.75 318.306C2360.99 332.389 2340.31 351.114 2323.95 373.365C2321.7 376.068 2319.56 378.894 2317.53 381.81C2315.5 384.726 2313.58 387.553 2311.78 390.255C2292.14 421.645 2281.08 457.633 2279.69 494.632C2277.99 531.671 2285.78 568.529 2302.33 601.71C2310.73 618.627 2321.42 634.311 2334.08 648.325C2346.52 662.158 2360.72 674.308 2376.3 684.468C2392.02 694.695 2408.91 702.975 2426.62 709.127C2444.5 715.408 2463.13 719.27 2482.03 720.611C2491.72 721.535 2503.53 722.447 2517.02 723.021C2530.94 723.618 2541.69 723.64 2546.12 723.629C2562.29 723.805 2578.45 723.11 2594.54 721.546C2604.81 720.694 2615.01 719.151 2625.08 716.93C2635.66 714.507 2645.99 711.076 2655.93 706.683C2658.38 705.557 2659.82 704.792 2660.95 704.24C2671.08 699.274 2675.9 695.559 2679.45 690.143C2682.66 685.065 2684.58 679.28 2685.04 673.29C2685.5 667.3 2684.49 661.288 2682.09 655.779C2675.54 641.141 2660.62 636.243 2653.01 633.755C2638.3 628.936 2627.98 631.311 2601.8 634.622C2601.8 634.622 2572.11 638.383 2546.69 640.027C2523.19 641.477 2499.6 640.234 2476.39 636.322C2465.56 634.632 2454.97 631.63 2444.86 627.382C2430.92 621.559 2418.12 613.327 2407.03 603.061C2396.1 593.078 2386.85 581.398 2379.64 568.472C2381.11 571.32 2382.58 574.102 2384.06 576.714C2386.31 580.767 2388.57 584.821 2390.82 588.874C2388.57 585.282 2386.53 581.781 2384.74 578.403C2382.95 575.025 2381.12 571.546 2379.32 567.931L2379.64 568.472C2378.86 566.963 2378.08 565.443 2377.31 563.878C2374.34 558.477 2371.85 552.826 2369.88 546.989H2670.51C2681.8 546.717 2692.56 542.122 2700.57 534.152C2704.62 530.31 2707.86 525.706 2710.12 520.605C2712.38 515.503 2713.61 510.005 2713.73 504.427V501.725C2713.84 473.855 2708.21 446.26 2697.2 420.656ZM2369.89 462.598C2374.88 448.12 2382.18 434.545 2391.51 422.401C2412.09 394.952 2442.68 376.743 2476.63 371.733C2494.65 368.792 2513.1 369.829 2530.67 374.773C2548.48 379.635 2565.14 388.02 2579.65 399.431C2594.06 410.659 2605.92 424.821 2614.45 440.979C2618.18 447.917 2621.34 455.147 2623.9 462.598H2369.89Z" fill="white"/>
<path d="M1874.82 375.031C1880.41 375.116 1885.96 374.062 1891.13 371.933C1896.3 369.803 1900.98 366.643 1904.89 362.646C1908.85 358.752 1912 354.108 1914.14 348.985C1916.29 343.862 1917.4 338.363 1917.4 332.808C1917.4 327.253 1916.29 321.754 1914.14 316.631C1912 311.508 1908.85 306.864 1904.89 302.97C1900.98 298.974 1896.3 295.815 1891.13 293.685C1885.96 291.556 1880.41 290.501 1874.82 290.584C1869.28 290.479 1863.78 291.525 1858.66 293.657C1853.55 295.789 1848.93 298.96 1845.1 302.97C1837.3 310.943 1832.93 321.653 1832.93 332.808C1832.93 343.962 1837.3 354.673 1845.1 362.646C1848.93 366.657 1853.54 369.829 1858.66 371.961C1863.78 374.093 1869.28 375.138 1874.82 375.031Z" fill="white"/>
<path d="M1874.83 419.991C1863.11 419.991 1853.2 423.118 1845.1 429.371C1837 435.623 1832.95 443.13 1832.94 451.89V691.663C1832.94 700.453 1836.99 707.959 1845.1 714.182C1853.21 720.405 1863.12 723.531 1874.83 723.561C1886.54 723.561 1896.56 720.435 1904.89 714.182C1913.22 707.929 1917.39 700.423 1917.39 691.663V451.924C1917.39 443.141 1913.22 435.635 1904.89 429.404C1896.56 423.174 1886.54 420.036 1874.83 419.991Z" fill="white"/>
<path d="M920.974 232.362C920.972 250.658 926.588 268.514 937.061 283.515C947.535 298.516 962.362 309.94 979.538 316.243V384.257C962.362 390.559 947.535 401.983 937.061 416.983C926.586 431.984 920.97 449.839 920.97 468.134C920.97 486.43 926.586 504.285 937.061 519.285C947.535 534.286 962.362 545.709 979.538 552.012V631.944C962.363 638.247 947.537 649.672 937.063 664.673C926.589 679.674 920.973 697.528 920.973 715.824C920.973 734.12 926.589 751.974 937.063 766.975C947.537 781.976 962.363 793.401 979.538 799.704V885.806C962.363 892.108 947.537 903.531 937.063 918.531C926.589 933.531 920.973 951.385 920.974 969.68H103.405C78.5951 969.68 54.8011 959.824 37.2576 942.281C19.7142 924.737 9.8584 900.943 9.8584 876.133V93.5408C9.8584 81.2563 12.2781 69.0922 16.9793 57.7429C21.6806 46.3936 28.5713 36.0815 37.258 27.3953C45.9447 18.7092 56.2573 11.8192 67.6069 7.11864C78.9564 2.41813 91.1208 -0.000790261 103.405 1.93666e-07H920.974C920.974 18.2947 926.591 36.1483 937.064 51.1483C947.538 66.1483 962.364 77.5715 979.538 83.8743V148.488C962.364 154.791 947.538 166.214 937.064 181.214C926.591 196.214 920.974 214.068 920.974 232.362Z" fill="#312783"/>
<path d="M832.401 729.936C811.702 746.187 785.766 740.956 770.231 737.82C763.087 736.376 739.065 730.778 718.57 712.426C668.3 667.411 678.622 580.942 699.31 532.05C706.833 514.258 717.475 490.116 741.34 483.013C754.455 479.107 773.499 479.775 785.995 490.892C798.797 502.28 795.408 516.34 801.758 571.45C805.647 605.156 807.591 622.009 813.032 632.717C828.681 663.414 851.638 665.888 853.419 688.784C855.219 711.536 834.014 728.672 832.401 729.936Z" fill="#FFD405"/>
<path d="M176.803 245.932C162.303 249.417 184.706 333.544 168.033 456.15C161.834 501.726 151.433 555.289 151.433 555.289C144.131 579.937 139.467 605.29 137.517 630.923C135.609 656.389 134.387 674.976 140.942 698.293C145.673 715.146 151.776 736.851 171.861 752.741C194.89 770.948 221.777 770.027 235.939 769.54C247.562 769.143 278.505 768.095 302.69 745.271C315.672 733.017 321.276 719.624 325.562 709.362C329.775 699.25 333.928 685.804 336.661 644.49C338.858 611.205 338.412 586.16 338.364 583.885C336.992 516.051 328.938 523.472 331.538 489.989C334.885 446.791 349.403 420.036 331.876 388.762C330.629 386.441 329.221 384.21 327.662 382.087C304.315 350.427 269.802 348.266 244.655 336.114C192.53 310.924 189.069 242.988 176.803 245.932Z" fill="#FFE14D"/>
<path d="M659.975 612.607C693.681 624.891 736.115 601.664 755.99 577.588C766.824 564.443 778.916 541.408 784.225 531.278C789.533 521.149 793.458 512.686 796.094 506.763C797.575 497.265 798.201 486.78 796.004 474.658C794.048 463.896 789.034 436.251 766.511 425.435C756.911 420.836 743.205 418.814 730.475 423.292C726.751 424.627 723.219 426.449 719.972 428.709C703.191 440.145 695.355 459.544 690.606 471.986C670.496 524.64 672.663 528.329 663.388 538.08C660.758 540.849 638.806 563.961 615.946 556.137C601.597 551.255 591.395 535.745 589.354 516.881C595.021 531.35 602.034 545.255 610.3 558.412C628.303 587.092 639.739 605.222 659.975 612.607Z" fill="#FFD405"/>
<path d="M557.352 259.879C561.662 248.906 567.584 232.486 568.331 211.185C556.738 173.326 547.18 161.228 535.955 153.066C531.495 149.822 508.207 133.847 481.182 139.999C454.645 146.018 440.987 169.739 433.452 183.305C407.691 229.651 413.776 281.288 423.978 342.97C428.625 371.079 433.349 396.539 438.062 419.628C457.678 411.003 472.37 397.472 484.667 385.922C521.443 351.349 535.612 315.253 557.352 259.879Z" fill="#FFEA81"/>
<path d="M495.826 695.736C495.807 695.543 495.759 695.354 495.682 695.176C492.534 687.893 491.318 682.777 491.156 682.843C490.885 682.952 495.646 695.802 495.826 695.736Z" fill="#FFEA81"/>
<path d="M656.593 584.366C645.247 577.408 624.156 551.214 621.58 538.056C621.502 537.677 621.159 535.847 620.599 533.054C619.654 528.239 618.083 520.673 615.91 511.434C613.762 502.285 611.836 495.689 611.637 494.31C608.284 471.101 604.884 442.487 601.742 414.438C600.285 417.972 598.732 421.372 597.113 424.671C596.042 426.844 581.338 454.236 561.439 474.833C527.823 509.616 476.493 527.998 470.823 529.973C469.68 532.266 467.748 535.426 465.406 535.39C461.036 535.323 458.659 524.194 457.581 524.447C455.679 524.893 462.499 560.669 467.94 588.916C470.95 604.662 472.581 613.311 474.657 622.821C475.765 627.889 476.716 631.85 476.981 632.969C476.981 632.969 479.388 643.244 482.115 653.157C487.424 672.64 494.55 691.732 495.67 695.205C499.121 703.313 503.705 710.89 509.284 717.71C516.194 725.827 524.496 732.647 533.8 737.85C548.378 746.078 561.349 748.124 568.824 749.232C595.59 753.198 616.88 746.902 629.243 743.104C653.114 735.767 669.088 724.963 680.903 716.831C693.074 708.465 719.425 689.975 740.617 657.123C745.782 649.112 753.721 630.742 769.815 594.093C777.008 577.721 781.149 567.543 785.086 554.464C789.552 539.615 792.236 526.494 794.463 515.611C795.065 512.758 795.607 509.821 796.082 506.787C744.963 574.242 681.577 599.69 656.593 584.366Z" fill="#FFEA81"/>
<path d="M806.784 333.623C803.485 369.604 759.722 396.034 727.436 381.913C704.473 371.862 690.828 342.826 697.907 316.306C705.4 288.234 734.749 268.155 764.218 274.872C791.881 281.21 809.065 308.777 806.784 333.623Z" fill="#FFDD34"/>
<path d="M590.829 315.487C590.227 310.75 585.797 275.491 573.777 230.355C571.906 223.319 570.094 216.975 568.33 211.214C567.578 232.516 561.661 248.941 557.352 259.908C535.611 315.282 521.443 351.396 484.637 385.957C472.358 397.501 457.647 411.032 438.032 419.663C429.528 423.421 420.548 425.991 411.344 427.301C398.451 429.149 382.314 431.454 367.074 423.473C328.492 403.262 327.108 333.532 326.464 301.162C325.67 261.16 333.169 247.792 324.574 212.484C319.657 192.297 314.402 172.007 295.815 158.139C275.766 143.188 247.194 140.931 225.327 150.621C195.606 163.785 186.005 195.571 178.5 220.441C166.697 259.565 170.753 292.452 179.354 356.657C185.614 403.394 188.744 426.766 198.934 448.596C205.374 462.398 228.818 510.833 283.2 538.839C341.885 569.054 399.035 556.155 430.478 549.071C443.07 546.287 455.444 542.591 467.501 538.014C494.502 527.74 530.098 509.057 561.396 474.863C571.448 463.879 589.686 443.661 601.724 414.499C597.269 374.587 593.333 335.885 590.829 315.487Z" fill="#FFD405"/>
</svg>
