<svg width="587" height="521" viewBox="0 0 587 521" fill="none" xmlns="http://www.w3.org/2000/svg">
<g filter="url(#filter0_d_702_8)">
<path d="M546.632 465.367C530.622 477.936 510.562 473.891 498.547 471.465C493.021 470.348 474.441 466.018 458.589 451.824C419.708 417.007 427.692 350.127 443.692 312.312C449.511 298.551 457.742 279.878 476.201 274.384C486.345 271.363 501.074 271.88 510.739 280.478C520.641 289.286 518.02 300.161 522.931 342.786C525.939 368.856 527.442 381.891 531.651 390.173C543.755 413.915 561.51 415.829 562.889 433.538C564.28 451.135 547.88 464.389 546.632 465.367Z" fill="#FFD405"/>
<path d="M39.559 91.0151C28.3442 93.7105 45.6715 158.779 32.7761 253.609C27.981 288.859 19.9366 330.288 19.9366 330.288C14.2892 349.352 10.6812 368.961 9.17332 388.787C7.69757 408.484 6.75253 422.86 11.8222 440.895C15.4814 453.93 20.2019 470.717 35.7369 483.007C53.5484 497.09 74.344 496.377 85.2981 496C94.2876 495.693 118.221 494.883 136.926 477.23C146.968 467.752 151.302 457.393 154.617 449.456C157.875 441.635 161.088 431.235 163.201 399.28C164.9 373.536 164.556 354.165 164.519 352.405C163.457 299.939 157.228 305.679 159.239 279.781C161.828 246.37 173.057 225.677 159.5 201.487C158.536 199.692 157.447 197.967 156.241 196.324C138.183 171.837 111.489 170.166 92.039 160.767C51.7235 141.284 49.0466 88.7386 39.559 91.0151Z" fill="#FFE14D"/>
<path d="M413.269 374.62C439.34 384.121 472.16 366.156 487.532 347.535C495.912 337.367 505.264 319.551 509.37 311.716C513.477 303.881 516.512 297.336 518.551 292.755C519.696 285.409 520.18 277.299 518.481 267.923C516.968 259.599 513.09 238.217 495.67 229.851C488.244 226.295 477.644 224.731 467.798 228.194C464.917 229.227 462.186 230.636 459.674 232.384C446.695 241.229 440.634 256.233 436.961 265.856C421.407 306.581 423.083 309.435 415.909 316.977C413.875 319.118 396.897 336.995 379.215 330.943C368.117 327.167 360.226 315.171 358.648 300.581C363.031 311.771 368.455 322.526 374.849 332.703C388.773 354.886 397.618 368.908 413.269 374.62Z" fill="#FFD405"/>
<path d="M333.896 101.801C337.229 93.3143 341.81 80.6145 342.387 64.1391C333.421 34.8568 326.028 25.4994 317.346 19.1867C313.896 16.6775 295.885 4.32213 274.982 9.07992C254.457 13.7353 243.893 32.0822 238.065 42.5754C218.14 78.4218 222.847 118.36 230.737 166.069C234.331 187.809 237.986 207.501 241.631 225.359C256.803 218.688 268.167 208.223 277.678 199.289C306.122 172.549 317.081 144.631 333.896 101.801Z" fill="#FFEA81"/>
<path d="M286.308 438.916C286.294 438.766 286.256 438.62 286.196 438.483C283.762 432.85 282.821 428.893 282.696 428.944C282.486 429.028 286.169 438.967 286.308 438.916Z" fill="#FFEA81"/>
<path d="M410.653 352.778C401.878 347.397 385.565 327.136 383.573 316.96C383.512 316.667 383.247 315.251 382.814 313.091C382.083 309.367 380.868 303.515 379.188 296.369C377.526 289.293 376.036 284.191 375.882 283.124C373.289 265.173 370.659 243.042 368.229 221.348C367.102 224.08 365.901 226.711 364.649 229.262C363.82 230.942 352.447 252.129 337.056 268.06C311.056 294.963 271.355 309.181 266.97 310.708C266.085 312.481 264.591 314.925 262.78 314.897C259.4 314.846 257.561 306.238 256.728 306.434C255.257 306.779 260.531 334.45 264.74 356.298C267.068 368.476 268.329 375.166 269.935 382.521C270.792 386.441 271.527 389.505 271.732 390.37C271.732 390.37 273.594 398.317 275.703 405.985C279.809 421.054 285.321 435.821 286.187 438.507C288.857 444.778 292.402 450.638 296.718 455.914C302.062 462.191 308.483 467.466 315.679 471.49C326.954 477.854 336.987 479.437 342.769 480.294C363.471 483.362 379.937 478.492 389.499 475.555C407.963 469.88 420.318 461.523 429.456 455.234C438.87 448.763 459.251 434.462 475.642 409.052C479.637 402.856 485.777 388.648 498.226 360.301C503.789 347.639 506.992 339.767 510.036 329.65C513.491 318.166 515.567 308.017 517.289 299.6C517.755 297.393 518.174 295.121 518.542 292.775C479.004 344.948 429.978 364.631 410.653 352.778Z" fill="#FFEA81"/>
<path d="M526.819 158.839C524.268 186.669 490.418 207.111 465.447 196.189C447.687 188.415 437.133 165.957 442.608 145.446C448.404 123.733 471.103 108.203 493.896 113.398C515.292 118.3 528.583 139.622 526.819 158.839Z" fill="#FFDD34"/>
<path d="M359.788 144.812C359.323 141.149 355.897 113.877 346.6 78.9668C345.152 73.5247 343.751 68.6179 342.387 64.1627C341.805 80.6381 337.228 93.3426 333.895 101.825C317.08 144.654 306.121 172.586 277.654 199.318C268.157 208.247 256.779 218.712 241.607 225.388C235.03 228.294 228.084 230.282 220.965 231.295C210.993 232.725 198.512 234.508 186.725 228.335C156.884 212.702 155.813 158.769 155.315 133.733C154.7 102.793 160.501 92.4534 153.853 65.145C150.05 49.5308 145.985 33.8376 131.61 23.1116C116.103 11.5476 94.0035 9.80184 77.0906 17.297C54.1023 27.4783 46.677 52.0634 40.8717 71.2994C31.7425 101.559 34.8802 126.996 41.5328 176.655C46.3744 212.804 48.7952 230.881 56.6767 247.766C61.658 258.441 79.7907 295.903 121.852 317.564C167.242 340.934 211.445 330.958 235.764 325.478C245.504 323.325 255.074 320.467 264.4 316.926C285.284 308.98 312.816 294.529 337.024 268.082C344.798 259.586 358.904 243.949 368.215 221.393C364.77 190.524 361.725 160.59 359.788 144.812Z" fill="#FFD405"/>
</g>
<defs>
<filter id="filter0_d_702_8" x="0" y="0" width="586.972" height="520.148" filterUnits="userSpaceOnUse" color-interpolation-filters="sRGB">
<feFlood flood-opacity="0" result="BackgroundImageFix"/>
<feColorMatrix in="SourceAlpha" type="matrix" values="0 0 0 0 0 0 0 0 0 0 0 0 0 0 0 0 0 0 127 0" result="hardAlpha"/>
<feOffset dx="8" dy="8"/>
<feGaussianBlur stdDeviation="8"/>
<feComposite in2="hardAlpha" operator="out"/>
<feColorMatrix type="matrix" values="0 0 0 0 0 0 0 0 0 0 0 0 0 0 0 0 0 0 0.25 0"/>
<feBlend mode="normal" in2="BackgroundImageFix" result="effect1_dropShadow_702_8"/>
<feBlend mode="normal" in="SourceGraphic" in2="effect1_dropShadow_702_8" result="shape"/>
</filter>
</defs>
</svg>
